# xmcd
#
# Track frame offsets: 
#        150
#        26307
#        41182
#        60857
#        92457
#        109550
#        120317
#        135162
#        163990
#        188460
#        211075
#        226342
#        250022
#
# Disc length: 3540 seconds
#
# Revision: 0
# Processed by: cddbd v1.4PL0 Copyright (c) Steve Scherf et al.
# Submitted via: ExactAudioCopy v0.90a11
#
DISCID=900dd20d
DTITLE=Blue Brothers - rausgeh´n und besorgen!
DYEAR=1900
DGENRE=
TTITLE0=Everybody Needs Somebody
TTITLE1=The Boys Are Back In Town
TTITLE2=Oh Darling
TTITLE3=Paul and Paula
TTITLE4=Turn It Up A Little Louder
TTITLE5=Sweet Soul Music
TTITLE6=Sweet Home Chicago
TTITLE7=Raw Hide
TTITLE8=Fever
TTITLE9=Somekind Of Wonderful
TTITLE10=Riot In Cell Block #9
TTITLE11=Gimme Some Lovin´
TTITLE12=Minnie The Moocher
EXTD=
EXTT0=
EXTT1=
EXTT2=
EXTT3=
EXTT4=
EXTT5=
EXTT6=
EXTT7=
EXTT8=
EXTT9=
EXTT10=
EXTT11=
EXTT12=
PLAYORDER=
